<?xml version="1.0" encoding="UTF-8" standalone="no"?>
<svg xmlns="http://www.w3.org/2000/svg" viewBox="0 0 426 178" width="426" height="178">
  <g transform="translate(0.000000,178.000000) scale(0.100000,-0.100000)" fill="currentColor" stroke="none">
    <path d="M3474 1580 c-114 -57 -289 -229 -373 -367 -18 -31 -33 -43 -55 -46
-17 -3 -134 -6 -261 -6 -403 -2 -673 -39 -792 -107 -45 -26 -59 -66 -27 -78
11 -4 14 0 12 16 -7 48 137 96 368 123 123 14 678 24 690 12 2 -2 -25 -60 -60
-129 -81 -160 -126 -293 -129 -384 l-2 -69 -55 -27 c-34 -18 -69 -28 -98 -28
-49 0 -50 5 -21 77 15 38 3 58 -48 80 -18 7 -33 17 -33 21 0 4 23 29 50 55 38
36 50 56 50 78 0 21 -5 29 -18 29 -46 0 -177 -111 -212 -181 -15 -29 -33 -42
-89 -67 -125 -56 -135 -41 -37 53 77 72 96 104 96 155 0 64 -50 50 -135 -36
-41 -43 -76 -92 -99 -139 -36 -74 -65 -97 -93 -73 -28 23 -3 106 60 200 13 18
15 28 7 33 -14 9 -44 -18 -81 -72 -30 -44 -202 -167 -223 -160 -6 2 -11 26
-11 54 1 40 9 64 43 123 23 40 39 76 36 81 -3 5 -49 -35 -102 -89 -85 -86
-192 -172 -214 -172 -16 0 -7 66 15 120 13 31 37 76 55 102 18 26 32 49 32 52
0 17 -25 2 -53 -31 -112 -131 -165 -177 -324 -277 -24 -14 -43 -31 -43 -36 0
-13 0 -13 63 15 31 13 85 49 121 80 36 30 68 55 70 55 3 0 -1 -19 -9 -41 -8
-23 -15 -59 -15 -80 0 -34 3 -39 23 -39 29 0 83 37 175 118 39 35 72 63 72 61
0 -2 -7 -22 -15 -44 -17 -47 -20 -131 -4 -140 14 -9 71 19 161 82 43 29 80 53
83 53 2 0 0 -12 -5 -26 -14 -35 -12 -88 2 -102 18 -18 54 -15 98 8 38 19 42
19 65 4 24 -15 29 -15 73 1 26 10 89 40 140 66 l93 49 45 -22 c25 -11 48 -27
51 -35 3 -8 -3 -32 -13 -54 -20 -46 -12 -72 25 -77 35 -5 121 27 190 71 61 40
65 41 75 22 6 -11 27 -37 47 -57 38 -40 54 -43 174 -38 64 2 215 38 285 67
138 57 329 208 314 248 -6 15 -17 8 -69 -48 -70 -75 -117 -101 -258 -141 -110
-32 -208 -44 -283 -36 -51 6 -61 11 -91 45 -37 43 -41 66 -16 86 9 8 101 127
204 265 l188 252 113 6 c342 21 570 83 683 187 40 37 70 90 58 102 -11 12 -63
-16 -63 -33 0 -23 -53 -74 -111 -107 -101 -57 -270 -96 -472 -108 -56 -4 -119
-8 -139 -10 -21 -2 -38 -1 -38 1 0 3 26 44 59 92 106 158 154 271 133 317 -15
32 -36 32 -108 -5z m19 -75 c14 -34 -37 -151 -124 -282 l-34 -53 -102 0 c-57
0 -103 3 -103 6 0 16 113 176 162 229 53 57 143 115 179 115 9 0 19 -7 22 -15z
m-193 -375 c0 -8 -209 -296 -313 -430 l-42 -55 -3 54 c-4 66 36 190 107 331
l48 95 74 5 c41 3 86 6 102 7 15 1 27 -2 27 -7z m-952 -417 c2 -16 -11 -36
-43 -69 -26 -25 -49 -43 -52 -40 -7 7 14 63 41 104 23 36 49 38 54 5z m252 13
c0 -22 -42 -48 -55 -35 -7 7 -3 16 14 30 28 23 41 24 41 5z"/>
<path d="M1079 1565 c-265 -55 -531 -277 -702 -585 -58 -106 -81 -190 -82
-300 0 -79 4 -102 22 -135 50 -94 137 -144 247 -145 84 0 140 24 207 90 43 43
129 194 117 205 -3 3 -18 -19 -33 -50 -15 -31 -37 -63 -50 -71 -13 -8 -25 -23
-27 -32 -4 -15 -71 -54 -143 -84 -46 -19 -86 -12 -165 27 -44 22 -80 44 -80
49 0 6 -9 19 -19 30 -10 12 -22 37 -25 56 -5 31 -5 32 4 10 6 -13 16 -28 23
-32 29 -19 32 -4 8 44 -44 89 -33 221 27 343 77 155 302 363 475 439 318 141
572 0 568 -315 -1 -106 -35 -230 -93 -341 -68 -132 -193 -225 -359 -267 -69
-17 -97 -31 -65 -31 12 0 16 -7 14 -22 -3 -21 1 -23 32 -20 107 9 215 76 305
187 150 186 232 370 242 546 9 147 -30 255 -121 335 -83 72 -197 97 -327 69z"/>
<path d="M960 1061 c0 -19 17 -38 25 -29 7 7 -7 48 -16 48 -5 0 -9 -9 -9 -19z"/>
<path d="M955 987 c-8 -28 -3 -42 12 -36 5 2 6 18 2 34 l-6 30 -8 -28z"/>
<path d="M1650 975 c-8 -8 -25 -23 -37 -35 -53 -47 -21 -68 114 -76 107 -6
144 4 110 30 -9 7 -40 16 -67 20 -27 4 -52 11 -55 16 -3 6 -17 10 -31 10 -27
0 -28 3 -14 31 13 22 1 25 -20 4z"/>
<path d="M935 890 c-7 -21 0 -40 16 -40 5 0 9 14 9 30 0 34 -15 40 -25 10z"/>
<path d="M912 791 c-8 -23 -9 -38 -2 -45 13 -13 22 14 18 51 l-3 28 -13 -34z"/>
<path d="M1377 264 c-11 -12 -8 -64 4 -64 6 0 9 6 6 14 -3 8 -1 16 5 18 8 3 8
10 2 21 -6 10 -13 14 -17 11z"/>
<path d="M1424 245 c-3 -14 -10 -22 -15 -19 -5 3 -9 -2 -9 -10 0 -24 18 -19
26 7 l8 22 7 -25 c6 -22 7 -20 8 13 1 42 -15 50 -25 12z"/>
<path d="M1500 235 c0 -30 3 -35 23 -34 16 1 18 2 5 6 -10 2 -18 8 -18 13 0 5
8 11 18 13 16 4 16 5 0 6 -10 0 -18 5 -18 10 0 5 8 12 18 14 13 4 11 5 -5 6
-20 1 -23 -4 -23 -34z"/>
<path d="M1590 235 c0 -36 10 -42 44 -29 32 12 11 64 -26 64 -14 0 -18 -8 -18
-35z m48 -4 c-5 -24 -38 -27 -38 -3 0 10 3 21 6 25 11 11 35 -5 32 -22z"/>
<path d="M1703 235 c0 -22 2 -30 4 -17 2 12 2 30 0 40 -3 9 -5 -1 -4 -23z"/>
<path d="M1787 263 c-4 -6 -10 -21 -16 -34 -8 -22 -6 -24 20 -24 24 0 28 3 23
20 -11 34 -21 48 -27 38z m9 -40 c-10 -10 -19 5 -10 18 6 11 8 11 12 0 2 -7 1
-15 -2 -18z"/>
<path d="M1938 236 c-2 -20 0 -36 4 -36 4 0 8 14 8 30 0 17 5 30 11 30 6 0 9
-7 5 -15 -3 -8 -1 -15 5 -15 17 0 5 34 -12 38 -12 2 -18 -6 -21 -32z"/>
<path d="M2030 233 c0 -30 3 -35 11 -23 8 11 12 12 16 3 9 -24 19 -13 18 20 0
25 -5 33 -22 35 -20 3 -23 -1 -23 -35z m35 17 c3 -5 -1 -10 -10 -10 -9 0 -13
5 -10 10 3 6 8 10 10 10 2 0 7 -4 10 -10z"/>
<path d="M2140 256 c-27 -33 18 -72 48 -42 13 13 14 20 6 34 -15 23 -38 26
-54 8z m48 -19 c4 -21 -25 -34 -40 -19 -8 8 -8 16 2 27 16 19 34 15 38 -8z"/>
<path d="M2250 235 c0 -27 4 -35 18 -35 18 0 42 18 42 31 0 13 -31 39 -46 39
-9 0 -14 -11 -14 -35z m37 14 c14 -14 6 -39 -13 -39 -8 0 -14 10 -14 25 0 27
9 32 27 14z"/>
<path d="M2363 238 c1 -25 7 -33 22 -33 15 0 20 7 21 30 1 28 1 28 -3 3 -6
-37 -30 -36 -37 2 -6 30 -6 30 -3 -2z"/>
<path d="M2470 255 c-23 -28 17 -72 42 -47 8 8 5 9 -9 6 -12 -3 -24 -1 -28 6
-10 16 14 40 32 33 11 -4 14 -2 9 5 -10 16 -31 15 -46 -3z"/>
<path d="M2588 235 c2 -19 8 -35 12 -35 4 0 10 16 12 35 3 27 0 35 -12 35 -12
0 -15 -8 -12 -35z"/>
<path d="M2752 261 c-8 -4 -12 -19 -10 -32 2 -18 9 -24 28 -24 19 0 26 6 28
24 3 20 -11 41 -28 41 -3 0 -11 -4 -18 -9z m33 -27 c0 -10 -8 -20 -17 -22 -18
-3 -26 27 -11 42 12 11 28 0 28 -20z"/>
<path d="M2859 270 c-5 -20 -4 -70 2 -70 11 0 17 48 8 62 -5 7 -9 11 -10 8z"/>
<path d="M2900 249 c0 -11 -4 -17 -10 -14 -16 10 -12 -11 5 -25 13 -11 15 -7
15 24 0 20 -2 36 -5 36 -3 0 -5 -9 -5 -21z"/>
<path d="M2670 230 c0 -16 4 -30 8 -30 5 0 7 14 4 30 -2 17 -6 30 -8 30 -2 0
-4 -13 -4 -30z"/>
  </g>
</svg>
